<svg xmlns="http://www.w3.org/2000/svg" viewBox="0 0 1200 800" style="background-color: #0a0a0a;">
  <defs>
    <style>
      .title { font: bold 32px 'Consolas', monospace; fill: #00ff00; }
      .subtitle { font: bold 16px 'Consolas', monospace; fill: #00ff00; }
      .box-title { font: bold 14px 'Consolas', monospace; fill: #ffffff; }
      .box-text { font: 11px 'Consolas', monospace; fill: #cccccc; }
      .layer-label { font: bold 18px 'Consolas', monospace; fill: #00ccff; }
      .arrow { stroke: #00ff00; stroke-width: 2; fill: none; marker-end: url(#arrowhead); }
      .arrow-bi { stroke: #ff0000; stroke-width: 2; fill: none; marker-end: url(#arrowhead-red); }
    </style>
    <marker id="arrowhead" markerWidth="10" markerHeight="10" refX="9" refY="3" orient="auto">
      <polygon points="0 0, 10 3, 0 6" fill="#00ff00" />
    </marker>
    <marker id="arrowhead-red" markerWidth="10" markerHeight="10" refX="9" refY="3" orient="auto">
      <polygon points="0 0, 10 3, 0 6" fill="#ff0000" />
    </marker>
  </defs>
  
  <!-- Title -->
  <text x="600" y="40" class="title" text-anchor="middle">MAGNETO v3 Architecture</text>
  <text x="600" y="65" class="subtitle" text-anchor="middle">Advanced APT Campaign Simulator - Living Off The Land</text>
  
  <!-- User Interface Layer -->
  <text x="50" y="110" class="layer-label">User Interface Layer</text>
  <rect x="50" y="120" width="280" height="100" fill="#1a1a1a" stroke="#00ff00" stroke-width="2" rx="5"/>
  <text x="190" y="145" class="box-title" text-anchor="middle">MAGNETO GUI v3</text>
  <text x="190" y="165" class="box-text" text-anchor="middle">Windows Forms Interface</text>
  <text x="190" y="180" class="box-text" text-anchor="middle">Real-time Monitoring</text>
  <text x="190" y="195" class="box-text" text-anchor="middle">APT Campaign Browser</text>
  <text x="190" y="210" class="box-text" text-anchor="middle">Visual Status Indicators</text>
  
  <rect x="370" y="120" width="280" height="100" fill="#1a1a1a" stroke="#00ff00" stroke-width="2" rx="5"/>
  <text x="510" y="145" class="box-title" text-anchor="middle">Command Line Interface</text>
  <text x="510" y="165" class="box-text" text-anchor="middle">Direct PS1 Execution</text>
  <text x="510" y="180" class="box-text" text-anchor="middle">Scripted Automation</text>
  <text x="510" y="195" class="box-text" text-anchor="middle">Parameter-driven Control</text>
  
  <rect x="690" y="120" width="280" height="100" fill="#1a1a1a" stroke="#00ff00" stroke-width="2" rx="5"/>
  <text x="830" y="145" class="box-title" text-anchor="middle">Launch Script</text>
  <text x="830" y="165" class="box-text" text-anchor="middle">Launch_MAGNETO_v3.bat</text>
  <text x="830" y="180" class="box-text" text-anchor="middle">Environment Validation</text>
  <text x="830" y="195" class="box-text" text-anchor="middle">Privilege Checks</text>
  
  <!-- Core Engine Layer -->
  <text x="50" y="260" class="layer-label">Core Engine Layer</text>
  <rect x="150" y="270" width="800" height="100" fill="#1a1a1a" stroke="#ff0000" stroke-width="3" rx="5"/>
  <text x="550" y="295" class="box-title" text-anchor="middle">MAGNETO_v3.ps1 - Core Attack Engine</text>
  <text x="300" y="320" class="box-text">• Configuration Manager</text>
  <text x="300" y="335" class="box-text">• Technique Selector</text>
  <text x="300" y="350" class="box-text">• Execution Controller</text>
  <text x="300" y="365" class="box-text">• Result Processor</text>
  <text x="600" y="320" class="box-text">• Pre-flight Validator</text>
  <text x="600" y="335" class="box-text">• Filter Engine</text>
  <text x="600" y="350" class="box-text">• Remote Execution Support</text>
  <text x="600" y="365" class="box-text">• Error Handler</text>
  
  <!-- Attack Framework Layer -->
  <text x="50" y="410" class="layer-label">Attack Framework</text>
  <rect x="50" y="420" width="220" height="120" fill="#1a1a1a" stroke="#00ccff" stroke-width="2" rx="5"/>
  <text x="160" y="445" class="box-title" text-anchor="middle">Technique Library</text>
  <text x="160" y="465" class="box-text" text-anchor="middle">55+ MITRE ATT&amp;CK TTPs</text>
  <text x="160" y="480" class="box-text" text-anchor="middle">14 Tactics Covered</text>
  <text x="160" y="495" class="box-text" text-anchor="middle">Real-world Attribution</text>
  <text x="160" y="510" class="box-text" text-anchor="middle">Validation Framework</text>
  <text x="160" y="525" class="box-text" text-anchor="middle">Cleanup Mechanisms</text>
  
  <rect x="300" y="420" width="220" height="120" fill="#1a1a1a" stroke="#00ccff" stroke-width="2" rx="5"/>
  <text x="410" y="445" class="box-title" text-anchor="middle">APT Campaigns</text>
  <text x="410" y="465" class="box-text" text-anchor="middle">7 Threat Actor Profiles</text>
  <text x="410" y="480" class="box-text" text-anchor="middle">Pre-configured Chains</text>
  <text x="410" y="495" class="box-text" text-anchor="middle">Signature TTPs</text>
  <text x="410" y="510" class="box-text" text-anchor="middle">APT41, Lazarus, APT29</text>
  <text x="410" y="525" class="box-text" text-anchor="middle">APT28, FIN7, StealthFalcon</text>
  
  <rect x="550" y="420" width="220" height="120" fill="#1a1a1a" stroke="#00ccff" stroke-width="2" rx="5"/>
  <text x="660" y="445" class="box-title" text-anchor="middle">Industry Verticals</text>
  <text x="660" y="465" class="box-text" text-anchor="middle">10 Sector Scenarios</text>
  <text x="660" y="480" class="box-text" text-anchor="middle">Financial, Healthcare</text>
  <text x="660" y="495" class="box-text" text-anchor="middle">Energy, Manufacturing</text>
  <text x="660" y="510" class="box-text" text-anchor="middle">Technology, Government</text>
  <text x="660" y="525" class="box-text" text-anchor="middle">Sector-specific Threats</text>
  
  <rect x="800" y="420" width="220" height="120" fill="#1a1a1a" stroke="#00ccff" stroke-width="2" rx="5"/>
  <text x="910" y="445" class="box-title" text-anchor="middle">NIST 800-53 Rev 5</text>
  <text x="910" y="465" class="box-text" text-anchor="middle">Security Control Mapping</text>
  <text x="910" y="480" class="box-text" text-anchor="middle">Compliance Validation</text>
  <text x="910" y="495" class="box-text" text-anchor="middle">AC, AU, IA, SC, SI</text>
  <text x="910" y="510" class="box-text" text-anchor="middle">Control Testing</text>
  <text x="910" y="525" class="box-text" text-anchor="middle">Federal Requirements</text>
  
  <!-- Execution Layer -->
  <text x="50" y="580" class="layer-label">Execution Layer</text>
  <rect x="200" y="590" width="700" height="100" fill="#1a1a1a" stroke="#ffcc00" stroke-width="3" rx="5"/>
  <text x="550" y="615" class="box-title" text-anchor="middle">Native Windows Binaries (LOLBins)</text>
  <text x="350" y="640" class="box-text">Living Off The Land Execution</text>
  <text x="350" y="655" class="box-text">PowerShell, WMI, CMD, Rundll32</text>
  <text x="350" y="670" class="box-text">Reg.exe, Schtasks, Net.exe</text>
  <text x="650" y="640" class="box-text">100% Native - No Malware</text>
  <text x="650" y="655" class="box-text">Stealth &amp; Realism</text>
  <text x="650" y="670" class="box-text">Safe for Production-like Envs</text>
  
  <!-- Logging & Reporting Layer -->
  <text x="50" y="730" class="layer-label">Logging &amp; Reporting</text>
  <rect x="50" y="740" width="180" height="50" fill="#1a1a1a" stroke="#9b59b6" stroke-width="2" rx="5"/>
  <text x="140" y="760" class="box-title" text-anchor="middle">Attack Logs</text>
  <text x="140" y="778" class="box-text" text-anchor="middle">TXT Format</text>
  
  <rect x="260" y="740" width="180" height="50" fill="#1a1a1a" stroke="#9b59b6" stroke-width="2" rx="5"/>
  <text x="350" y="760" class="box-title" text-anchor="middle">HTML Reports</text>
  <text x="350" y="778" class="box-text" text-anchor="middle">MITRE Heatmaps</text>
  
  <rect x="470" y="740" width="180" height="50" fill="#1a1a1a" stroke="#9b59b6" stroke-width="2" rx="5"/>
  <text x="560" y="760" class="box-title" text-anchor="middle">Windows Events</text>
  <text x="560" y="778" class="box-text" text-anchor="middle">4688, 4624, 7045</text>
  
  <rect x="680" y="740" width="180" height="50" fill="#1a1a1a" stroke="#9b59b6" stroke-width="2" rx="5"/>
  <text x="770" y="760" class="box-title" text-anchor="middle">SIEM Integration</text>
  <text x="770" y="778" class="box-text" text-anchor="middle">Exabeam, Splunk</text>
  
  <rect x="890" y="740" width="180" height="50" fill="#1a1a1a" stroke="#9b59b6" stroke-width="2" rx="5"/>
  <text x="980" y="760" class="box-title" text-anchor="middle">Console Output</text>
  <text x="980" y="778" class="box-text" text-anchor="middle">Real-time Status</text>
  
  <!-- Arrows - UI to Core -->
  <path class="arrow" d="M 190 220 L 400 270"/>
  <path class="arrow" d="M 510 220 L 550 270"/>
  <path class="arrow" d="M 830 220 L 700 270"/>
  
  <!-- Arrows - Core to Framework -->
  <path class="arrow-bi" d="M 300 370 L 160 420"/>
  <path class="arrow-bi" d="M 450 370 L 410 420"/>
  <path class="arrow-bi" d="M 600 370 L 660 420"/>
  <path class="arrow-bi" d="M 750 370 L 910 420"/>
  
  <!-- Arrows - Framework to Execution -->
  <path class="arrow" d="M 160 540 L 350 590"/>
  <path class="arrow" d="M 410 540 L 500 590"/>
  <path class="arrow" d="M 660 540 L 600 590"/>
  <path class="arrow" d="M 910 540 L 750 590"/>
  
  <!-- Arrows - Execution to Logging -->
  <path class="arrow" d="M 350 690 L 140 740"/>
  <path class="arrow" d="M 450 690 L 350 740"/>
  <path class="arrow" d="M 550 690 L 560 740"/>
  <path class="arrow" d="M 650 690 L 770 740"/>
  <path class="arrow" d="M 750 690 L 980 740"/>
  
  <!-- Legend -->
  <rect x="1050" y="120" width="130" height="130" fill="#0f0f0f" stroke="#00ff00" stroke-width="1" rx="3"/>
  <text x="1115" y="140" class="box-text" text-anchor="middle" font-weight="bold">LEGEND</text>
  <line x1="1060" y1="155" x2="1090" y2="155" stroke="#00ff00" stroke-width="2"/>
  <text x="1095" y="160" class="box-text">Data Flow</text>
  <line x1="1060" y1="175" x2="1090" y2="175" stroke="#ff0000" stroke-width="2"/>
  <text x="1095" y="180" class="box-text">Bi-directional</text>
  <rect x="1060" y="190" width="20" height="15" fill="none" stroke="#00ff00" stroke-width="2"/>
  <text x="1085" y="202" class="box-text">User Layer</text>
  <rect x="1060" y="210" width="20" height="15" fill="none" stroke="#ff0000" stroke-width="2"/>
  <text x="1085" y="222" class="box-text">Core Engine</text>
  <rect x="1060" y="230" width="20" height="15" fill="none" stroke="#ffcc00" stroke-width="2"/>
  <text x="1085" y="242" class="box-text">Execution</text>
  
  <!-- Stats Box -->
  <rect x="1050" y="270" width="130" height="100" fill="#0f0f0f" stroke="#00ccff" stroke-width="1" rx="3"/>
  <text x="1115" y="290" class="box-text" text-anchor="middle" font-weight="bold">COVERAGE</text>
  <text x="1060" y="310" class="box-text">55+ Techniques</text>
  <text x="1060" y="325" class="box-text">14 Tactics</text>
  <text x="1060" y="340" class="box-text">7 APT Groups</text>
  <text x="1060" y="355" class="box-text">10 Industries</text>
  
  <!-- Version Info -->
  <text x="600" y="795" class="box-text" text-anchor="middle" fill="#666">MAGNETO v3.3.1 | MITRE ATT&amp;CK v16.1 | October 2025</text>
</svg>
